<?xml version="1.0" encoding="UTF-8"?>
<!-- Simplified undraw-style illustration placeholder (license-friendly custom) -->
<svg xmlns="http://www.w3.org/2000/svg" viewBox="0 0 640 360" role="img" aria-label="Gardener splash">
  <defs>
    <linearGradient id="g" x1="0" y1="0" x2="1" y2="1">
      <stop offset="0%" stop-color="#0ea5e9"/>
      <stop offset="100%" stop-color="#7c3aed"/>
    </linearGradient>
  </defs>
  <rect width="640" height="360" fill="url(#g)"/>
  <g transform="translate(0,8)">
    <circle cx="520" cy="64" r="6" fill="#fff" opacity="0.6"/>
    <circle cx="580" cy="40" r="4" fill="#fff" opacity="0.5"/>
    <circle cx="600" cy="90" r="3" fill="#fff" opacity="0.5"/>
  </g>
  <g transform="translate(120,60)">
    <rect x="0" y="0" rx="16" ry="16" width="400" height="240" fill="#111827" opacity="0.25"/>
    <rect x="12" y="12" rx="12" ry="12" width="376" height="216" fill="#1f2937"/>
    <rect x="32" y="48" width="160" height="14" rx="7" fill="#60a5fa"/>
    <rect x="32" y="74" width="220" height="10" rx="5" fill="#9ca3af"/>
    <rect x="32" y="96" width="300" height="10" rx="5" fill="#6b7280"/>
    <rect x="32" y="128" width="280" height="10" rx="5" fill="#4b5563"/>
    <rect x="32" y="150" width="180" height="10" rx="5" fill="#374151"/>
    <rect x="32" y="184" width="120" height="28" rx="8" fill="#10b981"/>
  </g>
  
</svg>
